HIERARCHY
ROOT Hips
{
    OFFSET 0.000000 0.000000 0.000000
    CHANNELS 6 Xposition Yposition Zposition Zrotation Xrotation Yrotation
    JOINT Spine
    {
        OFFSET -0.000000 14.517291 0.000000
        CHANNELS 3 Zrotation Xrotation Yrotation
        JOINT Spine1
        {
            OFFSET -0.000000 37.558300 0.000000
            CHANNELS 3 Zrotation Xrotation Yrotation
            JOINT Neck
            {
                OFFSET -0.000000 37.404057 3.400369
                CHANNELS 3 Zrotation Xrotation Yrotation
                JOINT Head
                {
                    OFFSET -0.000000 24.785618 -3.540803
                    CHANNELS 3 Zrotation Xrotation Yrotation
                    End Site
                    {
                        OFFSET -0.000000 35.408028 0.000000
                    }
                }
            }
            JOINT LeftShoulder
            {
                OFFSET 6.992933 33.973492 -0.192664
                CHANNELS 3 Zrotation Xrotation Yrotation
                JOINT LeftArm
                {
                    OFFSET 21.527611 0.000000 0.000000
                    CHANNELS 3 Zrotation Xrotation Yrotation
                    JOINT LeftForeArm
                    {
                        OFFSET 56.353916 0.000000 0.000000
                        CHANNELS 3 Zrotation Xrotation Yrotation
                        JOINT LeftHand
                        {
                            OFFSET 47.774071 0.000000 0.000000
                            CHANNELS 3 Zrotation Xrotation Yrotation
                            End Site
                            {
                                OFFSET 26.556021 0.000000 0.000000
                            }
                        }
                    }
                }
            }
            JOINT RightShoulder
            {
                OFFSET -7.065357 33.973492 -0.192664
                CHANNELS 3 Zrotation Xrotation Yrotation
                JOINT RightArm
                {
                    OFFSET -21.527611 0.000000 0.000000
                    CHANNELS 3 Zrotation Xrotation Yrotation
                    JOINT RightForeArm
                    {
                        OFFSET -56.353916 0.000000 0.000000
                        CHANNELS 3 Zrotation Xrotation Yrotation
                        JOINT RightHand
                        {
                            OFFSET -47.774071 0.000000 0.000000
                            CHANNELS 3 Zrotation Xrotation Yrotation
                            End Site
                            {
                                OFFSET -26.556021 0.000000 0.000000
                            }
                        }
                    }
                }
            }
        }
    }
    JOINT LeftUpLeg
    {
        OFFSET 17.704014 0.000000 0.000000
        CHANNELS 3 Zrotation Xrotation Yrotation
        JOINT LeftLeg
        {
            OFFSET -0.000000 -81.181816 0.000000
            CHANNELS 3 Zrotation Xrotation Yrotation
            JOINT LeftFoot
            {
                OFFSET -0.000000 -62.821102 0.000000
                CHANNELS 3 Zrotation Xrotation Yrotation
                JOINT LeftToeBase
                {
                    OFFSET -0.000000 -11.507608 26.556021
                    CHANNELS 3 Zrotation Xrotation Yrotation
                    End Site
                    {
                        OFFSET -0.000000 0.000000 7.081605
                    }
                }
            }
        }
    }
    JOINT RightUpLeg
    {
        OFFSET -17.704014 0.000000 0.000000
        CHANNELS 3 Zrotation Xrotation Yrotation
        JOINT RightLeg
        {
            OFFSET -0.000000 -81.181816 0.000000
            CHANNELS 3 Zrotation Xrotation Yrotation
            JOINT RightFoot
            {
                OFFSET -0.000000 -62.821102 0.000000
                CHANNELS 3 Zrotation Xrotation Yrotation
                JOINT RightToeBase
                {
                    OFFSET -0.000000 -11.507608 26.556021
                    CHANNELS 3 Zrotation Xrotation Yrotation
                    End Site
                    {
                        OFFSET -0.000000 0.000000 7.081605
                    }
                }
            }
        }
    }
}
MOTION
Frames:    4
Frame Time:    0.008333
-7.262851    123.366585    -103.218857    -7.812823    3.091737    49.745987    0.249131    3.454581    -5.444487    -7.080387    -2.203729    -1.945927    4.857598    0.949243    -19.379246    15.211569    -6.541496    -17.929493    8.586036    7.011316    -22.136644    -33.684490    18.853975    -50.261658    -4.677802    -14.312933    -116.607376    -0.437997    -21.501318    -7.976418    -15.679754    -6.594507    -8.671595    15.832349    -23.577808    45.910572    -17.021479    -18.199221    44.730705    5.044454    -9.935923    32.324818    51.695919    -21.825022    19.528652    -40.481213    65.610168    3.270202    -19.231043    -35.727554    29.446226    0.000000    0.000000    0.000000    -52.216141    -39.482304    -47.771469    59.070000    62.205170    -54.149998    5.266788    -16.824051    -0.430817    0.000000    0.000000    0.000000    
-7.509117    124.207535    -102.565369    -7.792383    3.087043    49.756580    0.248482    3.349247    -5.467695    -7.117140    -2.210246    -1.954970    4.802207    1.034435    -19.406456    15.300865    -6.526331    -17.931326    8.569522    7.006045    -22.180836    -33.685432    18.861351    -50.190285    -4.720823    -14.245465    -116.631195    -0.409483    -21.506823    -8.017159    -15.669993    -6.581101    -8.667209    15.899253    -23.658089    46.006714    -16.909702    -18.120260    44.851543    5.023278    -9.886539    32.309483    51.223320    -21.299280    19.299700    -37.928032    64.481453    1.181100    -19.712425    -35.230808    29.671888    0.000000    0.000000    0.000000    -51.255020    -39.438629    -47.382050    57.571213    62.175762    -53.033749    5.308189    -16.872112    -0.316048    0.000000    0.000000    0.000000    
-7.748405    125.071716    -101.892426    -7.757755    3.091207    49.764778    0.215042    3.235313    -5.499804    -7.123861    -2.185131    -1.964718    4.742642    0.989429    -19.419844    15.338286    -6.361102    -17.953436    8.538486    6.999127    -22.155661    -33.705399    18.859344    -50.190853    -4.751262    -14.189558    -116.640045    -0.441748    -21.498856    -7.933056    -15.694964    -6.587147    -8.622498    15.941914    -23.671812    46.019829    -16.856531    -18.128309    44.939354    5.099343    -9.878811    32.338215    50.686451    -20.757341    19.034327    -35.399712    63.288723    -0.876143    -20.212317    -34.730389    29.948032    0.000000    0.000000    0.000000    -50.364758    -39.278767    -46.552135    56.776905    61.600754    -52.188675    5.121550    -16.866325    -0.582339    0.000000    0.000000    0.000000    
-8.005348    125.959015    -101.192009    -7.717720    3.090595    49.758652    0.201382    3.082850    -5.505803    -7.163618    -2.065344    -1.960331    4.682603    0.966537    -19.430756    15.397256    -6.312638    -17.952509    8.497255    6.989151    -22.131239    -33.610512    18.901323    -50.202675    -4.727638    -14.260831    -116.655373    -0.498202    -21.529737    -8.017576    -15.732850    -6.585014    -8.662209    16.032677    -23.670811    46.116524    -16.849449    -18.149866    45.048500    5.153257    -9.868598    32.365761    50.126560    -20.205307    18.760868    -32.918972    62.052998    -2.838556    -20.826931    -34.209446    30.239897    0.000000    0.000000    0.000000    -49.330803    -39.231571    -46.094379    55.149456    61.544331    -50.995270    5.209600    -16.927891    -0.456430    0.000000    0.000000    0.000000    
